<?xml version="1.0" encoding="UTF-8"?>
<!DOCTYPE svg PUBLIC "-//W3C//DTD SVG 1.1//EN" "http://www.w3.org/Graphics/SVG/1.1/DTD/svg11.dtd">
<!-- Creator: CorelDRAW 2020 (64-Bit) -->
<svg xmlns="http://www.w3.org/2000/svg" xml:space="preserve" width="13.0548mm" height="10.6607mm" version="1.1" style="shape-rendering:geometricPrecision; text-rendering:geometricPrecision; image-rendering:optimizeQuality; fill-rule:evenodd; clip-rule:evenodd"
viewBox="0 0 348.37 284.48"
 xmlns:xlink="http://www.w3.org/1999/xlink"
 xmlns:xodm="http://www.corel.com/coreldraw/odm/2003">
 <defs>
  <style type="text/css">
   <![CDATA[
    .fil1 {fill:#353334}
    .fil0 {fill:#353435}
   ]]>
  </style>
 </defs>
 <g id="Layer_x0020_1">
  <metadata id="CorelCorpID_0Corel-Layer"/>
  <g id="_1084194480">
   <path class="fil0" d="M-0 224.01c26.65,-12.33 38.01,-27.65 85.07,-41.27 -8.78,25.99 -41.19,80.7 -46.78,101.74 8.45,-5.02 19.13,-12.82 29.71,-17.96 28.17,-13.68 16.54,-0.84 42.54,-59.3 2.86,-6.44 5.14,-11.09 7.67,-17.21 1,-2.42 2.96,-7.35 3.33,-9.76 0.33,-2.16 -0.01,-3.16 -0.04,-3.54 -0.86,-9.44 -3.79,6.07 -0.55,-2.14 27.62,-9.75 73.88,-3.73 104.33,-1.16 0.17,11.4 22.3,55.67 28.13,69.93 8.73,21.3 7.43,13.87 26.6,23.36 12.14,6.01 20.6,11.97 29.75,17.65l-47.18 -101.19c40.08,9.89 62.7,30.71 85.79,41.12 -13.97,-22.78 -46.31,-52.04 -67.22,-65.14 -59.33,-37.15 -154.24,-37.53 -213.02,-1.02 -16.38,10.17 -29.73,21.48 -43.37,35.78 -0.32,0.34 -0.76,0.84 -1.08,1.17l-9.89 10.42c-4.52,5.86 -10.08,12.92 -13.79,18.51z"/>
   <path class="fil1" d="M113.79 126.56l35.6 -6.72c6.1,-14.02 17.9,-48.85 25.76,-55.86l23.58 55.04 35.14 7.24c-0.88,-10.13 -22.42,-49.76 -28.99,-62.43l-32.02 -63.82c-3.64,12.16 -22.06,49.21 -28.78,62.46 -8.15,16.07 -25.84,48.81 -30.28,64.1z"/>
  </g>
 </g>
</svg>
