<?xml version="1.0" encoding="UTF-8"?>
<!DOCTYPE svg PUBLIC "-//W3C//DTD SVG 1.1//EN" "http://www.w3.org/Graphics/SVG/1.1/DTD/svg11.dtd">
<!-- Creator: CorelDRAW 2020 (64-Bit) -->
<svg xmlns="http://www.w3.org/2000/svg" xml:space="preserve" width="297mm" height="210mm" version="1.1" style="shape-rendering:geometricPrecision; text-rendering:geometricPrecision; image-rendering:optimizeQuality; fill-rule:evenodd; clip-rule:evenodd"
viewBox="0 0 29700 21000"
 xmlns:xlink="http://www.w3.org/1999/xlink"
 xmlns:xodm="http://www.corel.com/coreldraw/odm/2003">
 <defs>
  <style type="text/css">
   <![CDATA[
    .fil4 {fill:black}
    .fil8 {fill:#585858}
    .fil10 {fill:#848484}
    .fil0 {fill:#A6120C}
    .fil2 {fill:#B3B2B2}
    .fil9 {fill:#B4B4B4}
    .fil1 {fill:#DC1B16}
    .fil5 {fill:#E7C830}
    .fil7 {fill:#EAD776}
    .fil3 {fill:#F2F1F1}
    .fil6 {fill:#FEFEFE}
   ]]>
  </style>
 </defs>
 <g id="Layer_x0020_1">
  <metadata id="CorelCorpID_0Corel-Layer"/>
  <g id="_864266256">
   <path class="fil0" d="M12335.75 9398.3l-5.07 11.28c19.2,16.55 26.12,34.98 36.95,58.99l83.23 179.61c69.69,155.55 287.75,592.68 330.05,710.3l-153.1 -1.67c-12.58,-37.83 -31.77,-78.81 -48.78,-117.27 -56.52,-127.84 -3.33,-102.57 -245.92,-103.25l2.13 536.84 490.14 -267.5c38.16,-20.18 39.16,-20.12 45.42,-65.74 22.33,-162.56 86.64,-642.44 96.12,-781.49l-632.66 -210.32 1.49 50.22z"/>
   <path class="fil1" d="M12335.24 10673.13l-2.13 -536.84 -186.46 0.55 -89.33 216.38 -156.62 2.99c22.99,-74.46 75.37,-167.64 107.23,-242.83 43.95,-103.75 308.42,-695.1 327.82,-715.08l-1.49 -50.22 -620.79 217.21 92.49 815.91c8.07,5.99 7.33,5.69 16.91,12.77l48.61 28.22c78.96,40.89 440.04,251.24 463.76,250.94z"/>
   <path class="fil2" d="M12334.26 9348.08l632.66 210.32c-9.48,139.05 -73.79,618.93 -96.12,781.49 -6.26,45.62 -7.26,45.56 -45.42,65.74l-490.14 267.5c-23.72,0.3 -384.8,-210.05 -463.76,-250.94l-48.61 -28.22c-9.58,-7.08 -8.84,-6.78 -16.91,-12.77l-92.49 -815.91 620.79 -217.21zm-701.61 161.43l50.08 432.51c17.02,148.31 36.75,291.42 51.77,439.29 7.85,77.36 43.93,66.48 123.17,113.9 55.09,32.96 102.45,55.42 158.69,86.84 37.46,20.94 301.92,172.05 319.02,172.05l546.91 -299.75c40.44,-23.02 48.58,-18.72 54.07,-72.93 10.51,-103.66 101.75,-813.31 101.75,-880.38 -40.92,-3.4 -130.4,-39.27 -174.61,-53.99 -64.46,-21.48 -111.25,-39.87 -175.72,-61.35 -468.99,-156.25 -246.18,-148.83 -702.71,2.1l-352.42 121.71z"/>
   <path class="fil2" d="M12326.42 9712.66l8.8 7.85 140.97 286.92 -140.31 -0.26 -2.77 129.12c242.59,0.68 189.4,-24.59 245.92,103.25 17.01,38.46 36.2,79.44 48.78,117.27l153.1 1.67c-42.3,-117.62 -260.36,-554.75 -330.05,-710.3l-83.23 -179.61c-10.83,-24.01 -17.75,-42.44 -36.95,-58.99 2.52,63.22 7.97,261.12 -4.26,303.08z"/>
   <path class="fil3" d="M12333.11 10136.29l2.77 -129.12 -128.9 0.8c26.47,-96.43 96.39,-205.81 119.44,-295.31 12.23,-41.96 6.78,-239.86 4.26,-303.08l5.07 -11.28c-19.4,19.98 -283.87,611.33 -327.82,715.08 -31.86,75.19 -84.24,168.37 -107.23,242.83l156.62 -2.99 89.33 -216.38 186.46 -0.55z"/>
   <path class="fil4" d="M13149.91 9746.57l0.34 579.96 57.19 1.75c26.62,4.26 17.72,5.21 16.98,-90.6l-1.21 -338.71 -1.68 -50.29c38.7,22.02 294.32,387.09 343.37,446.79 30.33,36.94 27.53,31.28 82.81,31.72 17.8,-0.62 11.85,2.72 25.4,-4.89l0 -592.66 -84.67 0 0 20.63c10.52,16.69 9.03,408.56 3.07,456.56 -8.01,-13.59 -14.45,-6.39 -21.21,-36.93 -26.8,-19.77 -303.16,-389.05 -337.46,-440.26 -106.71,0 -79.23,-7.14 -82.93,16.93z"/>
   <path class="fil4" d="M16124.02 9746.57l0.63 577.98 54.59 2.45 25.29 4.53c0.11,-101.68 12.77,-444.86 -5.36,-517.22 7.76,-24.74 -2.7,-8.85 13.93,-23.3 52.17,0 181.17,-9.02 219.21,15.43 53.68,34.52 44.89,118.7 -7.54,149.8 -26.71,21.97 -34.12,25.17 -68.57,35.04 -41.62,11.94 -56.76,-1.31 -66.9,33.05l6.37 19.54c20.65,57.87 59.92,93.24 90.76,138.85 101,149.38 79.15,143.13 173.81,146.22l25.37 2.19c-11.37,-43.25 -152.95,-207.99 -186.24,-271.4l-16.9 -12.2 93.1 -44.63c39.63,-15.95 73.05,-71.91 76.51,-121.35 4.68,-66.96 -29.18,-112.7 -68.05,-134.97 -47.65,-27.31 -198.34,-16.05 -279.51,-17.04 -108.95,-1.33 -80.4,-4.57 -80.5,17.03z"/>
   <path class="fil4" d="M14386.46 9746.57c1.27,127.2 -23.49,393.57 33.79,489.1 29.03,48.42 83.96,84.74 167.96,93.16 111.92,11.21 135.25,-9.71 219.43,-40.57 80.5,-52.84 76.25,-157.72 76.2,-236.89 -0.06,-107.24 0,-214.49 0,-321.73 -101.29,0 -66.94,-5.77 -76.41,16.93 0.87,87.4 0.22,175.04 0.24,262.47 0.02,87.84 8.74,175.51 -50.83,219.73 -94.33,66.01 -260.05,47.62 -284.77,-70.43 -14.89,-71.18 -3.1,-337.03 -3.1,-428.7 -113.13,0 -76.48,-5.82 -82.51,16.93z"/>
   <path class="fil0" d="M17022.64 9797.37c-19.48,57.01 -45.4,110.57 -6.86,179.82 76.85,138.07 258.75,43.93 335,104.95 43.86,35.11 30.28,121.95 -11.61,153.8 -51.69,33.5 -81.6,27.5 -161.16,27.39 -73.49,-0.1 -103.71,-20.96 -160.58,-25.7l0.07 16.94 1.08 52.78c64.01,12.17 126.02,22.96 193.6,23.63 100.51,0.99 110.22,-14.95 186.25,-41.55 73.59,-54.89 97.7,-236.15 -44.94,-286.25 -81.22,-28.53 -348.62,39.8 -261.27,-163.48 34.99,-82.28 266.23,-50.38 309.22,-29.22 13.18,6.49 7.01,4.25 14.85,12.29l16.01 0 0 -76.2c-59.11,-13.77 -151.49,-31.03 -228.2,-25.02 -86.08,6.74 -133.98,24.16 -181.46,75.82z"/>
   <path class="fil4" d="M15731.72 9670.37l-280.88 656.63 59.53 0c34.38,-1.66 22.72,-13.8 61.65,-103.92 19.13,-44.3 32.91,-81.91 50.82,-126.98l101.4 -247.93 19.1 -37.38 108 267.1 -27.7 0.09 -127 -1.34 -2.11 17.06 -11.03 44.19 199.22 14.88c21.16,33.11 50.22,134.8 75.84,173.24l59.81 2.74 25.37 2.42 -146.73 -336.24c-13.48,-28.05 -23.68,-53.39 -35.87,-82.66l-113.7 -258.83 -15.72 16.93z"/>
   <path class="fil4" d="M13833.2 9822.77c-59.91,130.04 -85.28,274.98 8.47,407.01 96.9,136.49 298.95,95.43 407.17,81.61 24.07,-12.96 16.79,-2.85 17.75,-47.39l-0.82 -212.63 -84.66 0 4.71 25.4 0 169.33c-9.89,17.99 -2.14,9.82 -21.65,17.06 -114.78,-0.66 -221.23,14.99 -279.61,-109.97 -28.47,-60.94 -38.59,-175.43 -3.14,-249.14 15.5,-32.21 24.56,-33.78 37.91,-55.88 13.83,-24.54 -4.18,-3.75 13.58,-18.27 4.09,-3.35 12.82,-7.77 17.38,-10.07 38.41,-19.42 76.33,-29.99 120.1,-32.42 62.42,-3.48 126.22,6.43 178.45,24.69 20.22,-5.29 16.93,6.78 16.93,-65.53 -74.5,-6.2 -120.23,-40.91 -248.23,-19.64 -83.51,13.88 -144.42,41.07 -184.34,95.84z"/>
   <path class="fil4" d="M15023.64 9746.57l2.31 579.69 374.35 2.26c22.83,-5.91 11.94,3.37 17.14,-22.86 0.88,-4.42 -0.2,-35.58 -0.2,-42.63l-313.27 0 0 -533.39c-114.47,0 -77.61,-4.83 -80.33,16.93z"/>
   <path class="fil0" d="M16802.61 9746.57c1.26,52.28 7.9,406.01 -7.47,454.38 -10.33,32.54 -13.2,29.52 -31.71,39.53 -23.79,14.88 -53.9,22.55 -93.13,22.55l0 21 6.93 43.29c57.63,-1.93 91.39,-16.82 137,-30.56 77.06,-50.76 67.74,-122.84 67.74,-245.39 -0.01,-107.24 0,-214.49 0,-321.73 -115.01,0 -78.06,-3.99 -79.36,16.93z"/>
   <path class="fil4" d="M16424.77 10533.97c0,157.1 170.35,174.03 225.59,98.59 12.75,-17.42 51.37,-98.59 3.01,-98.59l-101.6 0c1.33,59.76 20.59,42.33 84.67,42.33 -56.03,105.88 -169.34,59.4 -169.34,-33.87 0,-56.27 35.99,-84.66 93.14,-84.66 60.07,0 26.44,38.99 84.66,0 -41.23,-56.28 -127.85,-53.01 -177.46,-8.14 -19.53,17.66 -42.67,47.82 -42.67,84.34z"/>
   <path class="fil4" d="M17076.7 10584.77c35.52,-67.13 43.16,-33.87 76.2,-33.87 7.24,31.07 26.95,84.66 -33.87,84.66 -33.66,0 -33.31,-30.61 -42.33,-50.79zm-33.87 -16.94c0,86.65 39.33,135.04 118.54,93.13 -2.58,30.92 -10.28,50.8 -42.34,50.8 -45.08,0 1.9,-35.12 -76.2,-16.93 46.66,88.18 160.87,62.27 160.87,-50.8 0,-134.83 30.79,-135.46 -84.67,-135.46 -33.05,0 -76.2,32.3 -76.2,59.26z"/>
   <path class="fil2" d="M14807.64 10288.26c-84.18,30.86 -107.51,51.78 -219.43,40.57 -84,-8.42 -138.93,-44.74 -167.96,-93.16 -57.28,-95.53 -32.52,-361.9 -33.79,-489.1 -17.66,4.12 -15.4,1.64 -27.55,8.47 0,93.14 0.42,186.38 -0.12,279.51 -1.08,190.2 31.52,304.86 237.77,321.43 52.45,4.21 126.51,-8.58 168.7,-33.87 9.69,-5.81 9.29,-5.35 20.39,-13.96 15.34,-11.9 11.15,-8.08 21.99,-19.89z"/>
   <path class="fil2" d="M13223.21 9898.97l339.83 448.73 84.67 0 0 -20.51c-55.28,-0.44 -52.48,5.22 -82.81,-31.72 -49.05,-59.7 -304.67,-424.77 -343.37,-446.79l1.68 50.29z"/>
   <path class="fil2" d="M14248.84 10311.39c-108.22,13.82 -310.27,54.88 -407.17,-81.61 -93.75,-132.03 -68.38,-276.97 -8.47,-407.01 -7.95,6.3 -9.15,6.59 -16.67,16.12 -40.18,50.9 -58.12,118.3 -59.16,186.79 -2.89,190.71 71.18,292.51 253.01,323.41 65.24,11.09 127.1,5.34 188.22,-9.21 34.77,-8.27 35.46,-4.4 50.24,-28.49z"/>
   <path class="fil2" d="M15400.3 10328.52l-374.35 -2.26 -2.31 -579.69c-15.31,4.83 -23.32,-10.51 -21.85,58.8l0.58 542.33 397.93 0 0 -19.18z"/>
   <path class="fil1" d="M12335.88 10007.17l-0.66 -286.66 -8.8 -7.85c-23.05,89.5 -92.97,198.88 -119.44,295.31l128.9 -0.8z"/>
   <polygon class="fil0" points="12335.88,10007.17 12476.19,10007.43 12335.22,9720.51 "/>
   <path class="fil2" d="M17339.17 10235.94c41.89,-31.85 55.47,-118.69 11.61,-153.8 -76.25,-61.02 -258.15,33.12 -335,-104.95 -38.54,-69.25 -12.62,-122.81 6.86,-179.82l-21.66 25.25c-29.88,40.1 -34.25,88.25 -22.82,141.02 34.67,160.01 232.27,102.7 315.51,124.75 61.27,16.23 73.56,90.21 45.5,147.55z"/>
   <polygon class="fil2" points="13207.44,10328.28 13150.25,10326.53 13149.91,9746.57 13122.78,9746.57 13122.78,10347.7 13207.44,10347.7 "/>
   <path class="fil4" d="M17305.3 10584.77c9.69,-18.31 14.75,-42.34 42.33,-42.34 23.85,0 15.68,3.66 25.4,16.94 -32.3,7.52 -35.43,17.87 -67.73,25.4zm33.87 93.13c36.54,0 47.57,-17.76 76.2,-25.4l0 -25.4c-59.7,-13.91 -37.29,27.69 -93.14,0 9.7,-26.8 72.94,-48.42 101.6,-50.8 -34.16,-146.62 -221.43,-32.53 -137.43,69.59 6.6,8.02 44.57,32.01 52.77,32.01z"/>
   <path class="fil4" d="M16771.9 10635.56c-45.5,0 -42.33,-24.06 -42.33,-59.26 0,-47.98 84.66,-42.49 84.66,16.93 0,19.74 -22.59,42.33 -42.33,42.33zm-84.66 -50.79c0,30.35 -0.76,50.17 23.37,69.75 121.63,98.73 219.98,-145.95 52.82,-145.95 -41.84,0 -76.19,34.35 -76.19,76.2z"/>
   <path class="fil4" d="M16949.7 10635.56l-8.47 0c-50.76,0 -53.29,-87.24 0.97,-91.39 61.87,-4.73 61.68,91.39 7.5,91.39zm-84.67 -50.79c0,30.35 -0.75,50.17 23.38,69.75 58.16,47.21 138.44,12.67 141.22,-62.61 3.94,-106.72 -164.6,-112.72 -164.6,-7.14z"/>
   <polygon class="fil2" points="16179.24,10327 16124.65,10324.55 16124.02,9746.57 16103.04,9746.57 16103.04,10347.7 16179.24,10347.7 "/>
   <path class="fil2" d="M16560.24 10328.94c-94.66,-3.09 -72.81,3.16 -173.81,-146.22 -30.84,-45.61 -70.11,-80.98 -90.76,-138.85l-6.37 -19.54c-75.3,7.94 89.95,206.34 116.17,241.07 16.57,21.93 47.16,59.82 53.17,82.3 129.35,0 111.42,10.02 101.6,-18.76z"/>
   <path class="fil2" d="M16018.37 10328.75l-59.81 -2.74c-25.62,-38.44 -54.68,-140.13 -75.84,-173.24l-199.22 -14.88 11.03 -44.19c-0.47,0.23 -19.47,5.28 -23.29,8.47 -2.74,32.89 -7.64,22.06 -8.47,59.27l194.73 0c6.21,26.64 24.57,61.08 36.41,90.59 13.77,34.3 24.37,66.52 39.79,95.67l84.67 0 0 -18.95z"/>
   <path class="fil2" d="M15510.37 10327l-59.53 0 280.88 -656.63c-32.61,21.79 -116.02,242.36 -136.64,287.91l-95.9 217.36c-14.21,29.66 -22.69,51.63 -36.76,81.78l-36.72 90.28 84.67 0 0 -20.7z"/>
   <path class="fil2" d="M14756.84 10228.77c59.57,-44.22 50.85,-131.89 50.83,-219.73 -0.02,-87.43 0.63,-175.07 -0.24,-262.47l-25.19 0c0,84.67 0,169.33 0,254 0,100.5 11.44,158.97 -25.4,228.2z"/>
   <path class="fil2" d="M16763.43 10240.48c18.51,-10.01 21.38,-6.99 31.71,-39.53 15.37,-48.37 8.73,-402.1 7.47,-454.38 -38.34,0 -13.34,-2.19 -22.24,8.47 -6.69,18.44 10.5,404.12 -6.36,459.2 -7.14,23.31 -1.45,8.43 -10.58,26.24z"/>
   <path class="fil2" d="M13570.3 10169.9c6.76,30.54 13.2,23.34 21.21,36.93 5.96,-48 7.45,-439.87 -3.07,-456.56 -30.45,-7.25 -8.99,-4.74 -16.93,4.77l-1.21 414.86z"/>
   <path class="fil2" d="M17398.43 10289.43c-76.03,26.6 -85.74,42.54 -186.25,41.55 -67.58,-0.67 -129.59,-11.46 -193.6,-23.63l-1.08 -52.78 -25.47 0 0 76.2c38.04,0.84 65.17,13.04 102,16.53 92.22,8.75 196.72,24.7 282.8,-39.09l21.6 -18.78z"/>
   <path class="fil2" d="M16199.17 9814.31c54.12,0 156.6,-4.91 193.5,6.7 62.64,19.71 62.51,82.14 32.1,135.23 52.43,-31.1 61.22,-115.28 7.54,-149.8 -38.04,-24.45 -167.04,-15.43 -219.21,-15.43 -16.63,14.45 -6.17,-1.44 -13.93,23.3z"/>
   <polygon class="fil4" points="17220.63,10669.43 17254.5,10669.43 17254.5,10423.9 17220.63,10423.9 "/>
   <path class="fil4" d="M16179.24 10652.5c-11.62,-20.68 -8.47,-15.66 -8.47,-50.8 0,-32.37 -2.6,-3.08 8.47,-25.4 59.39,4.94 62.38,76.2 0,76.2zm-33.87 16.93c37.21,0 101.6,11.1 101.6,-50.8 0,-66.51 -46.06,-59.26 -76.2,-59.26l0 -42.34 -25.4 0 0 152.4z"/>
   <path class="fil2" d="M17092.22 9839.7l9.94 -7.84c35.81,-21.25 103.94,-23.24 137.15,-19.81 126.64,13.09 38.13,-2.51 167.59,27.65l9.39 -16.93c-7.84,-8.04 -1.67,-5.8 -14.85,-12.29 -42.99,-21.16 -274.23,-53.06 -309.22,29.22z"/>
   <path class="fil2" d="M15724.24 9848.17c14.45,24.61 14.9,31.88 26.12,56.42 9.79,21.41 16.06,37.25 25.02,59.57 17.18,42.8 29.77,75.92 48.26,113.82l27.7 -0.09 -108 -267.1 -19.1 37.38z"/>
   <path class="fil2" d="M13919.33 9848.17l13.82 -8.48c18.83,-9.12 1.27,-1.91 19.9,-8.65 11.2,-4.05 25.03,-8.29 38.34,-11.72 71.72,-18.5 190.21,-7.81 248.98,20.38 6.84,-12.16 4.68,-9.73 8.47,-27.6 -52.23,-18.26 -116.03,-28.17 -178.45,-24.69 -43.77,2.43 -81.69,13 -120.1,32.42 -4.56,2.3 -13.29,6.72 -17.38,10.07 -17.76,14.52 0.25,-6.27 -13.58,18.27z"/>
   <path class="fil4" d="M16289.3 10677.9l-33.86 33.86c50.44,-1.12 47.47,-18.24 61.94,-56.58 9.96,-26.39 29.07,-70.35 31.19,-95.81l-25.4 0 -16.17 60.03c-8.62,18.36 -3.3,7.63 -9.23,16.16 -17.12,-73.5 -17.2,-73.4 -50.8,-76.19 14.79,30.82 33.89,82.29 42.33,118.53z"/>
   <path class="fil2" d="M14164.17 10263.16c19.51,-7.24 11.76,0.93 21.65,-17.06l0 -169.33c-37.32,0 -12.81,-2.11 -21.65,8.47l0 177.92z"/>
   <path class="fil2" d="M16814.23 10296.76c-45.61,13.74 -79.37,28.63 -137,30.56l-6.93 -43.29c-19.14,2.72 -11.79,-24.22 -17.84,20.12 -0.62,4.52 0.91,35.93 0.91,43.55 46.04,0 56.01,2.57 92.3,-9.3l68.56 -41.64z"/>
   <path class="fil2" d="M16399.37 10059.73l50.1 -35.12c1.48,-1.08 3.64,-2.45 5.09,-3.52l21.01 -18.19 -93.1 44.63 16.9 12.2z"/>
  </g>
  <g id="_864273792">
   <path class="fil5" d="M17405.92 7577.23l19.05 -1.98 3.09 -791.59 77.9 -10.17c31.53,0.28 53.3,-3.75 82.68,3.61l3.23 1022.83c-43.41,-0.05 -14.73,-0.47 -21.51,-10.33l-419.05 -110.63 -2.45 -163.48c82.59,10.2 182.6,61.03 257.06,61.74zm729.64 -642.33c4.26,-9.64 14.97,3.1 -2.59,-6.5 -8.14,14.94 17.38,9.53 -24.97,13.93 -5.08,0.52 -28.01,-0.76 -34.64,-0.98 -23.02,-0.76 -44.82,-1.03 -67.88,-1.01 -48.4,0.05 -96.54,-0.07 -144.89,1.05 1.98,78.81 -12.45,203.09 5.93,273.76 38.6,-4.13 74.72,-9.5 121.03,-16.42 21.09,-3.16 38.09,-5.3 59.56,-8.33l71.16 -10.81 -47.06 512.11 -372.73 104.08 1.07 -165.81 231.13 -62.79 10.31 -45.8c7.67,-53.55 5.73,-101.31 18,-156.78 -73.92,-5.31 -153.88,18.45 -228.49,28.55 -37.77,17 -8.04,10.85 -35.11,3.46l3.23 -612.58c25.55,-17.62 13.62,-10.6 52.63,-9.85l296.57 -0.95c48.55,0.91 91.17,-6.44 103.8,11.53l-16.06 150.14zm-508.61 1177.36c41.5,5.17 598.38,-152.9 609.78,-167.02 29.95,-37.11 95.59,-1239.73 131.66,-1463.71 -73.69,-13.04 -1401.79,-11.23 -1444.52,0.3 -12.13,47.3 72.02,901.4 85.98,1076.72l29.96 360.64c6.2,42.64 19.96,36.82 56.62,45.45 126.33,29.72 446.77,137.2 530.52,147.62z"/>
   <path class="fil6" d="M17730.5 7393.15c74.61,-10.1 154.57,-33.86 228.49,-28.55 -12.27,55.47 -10.33,103.23 -18,156.78l-10.31 45.8 -231.13 62.79 -1.07 165.81 372.73 -104.08 47.06 -512.11 -71.16 10.81c-21.47,3.03 -38.47,5.17 -59.56,8.33 -46.31,6.92 -82.43,12.29 -121.03,16.42 -15.78,-13.19 -8.7,17.91 -14.46,-30.81l-0.16 -103.99c-0.05,-46.33 0.33,-94.88 3.32,-141.12 56.6,-11.59 236.85,-14.83 280.34,-4.33l16.06 -150.14 -449.7 -2.47 -1.06 613.25 29.64 -2.39z"/>
   <path class="fil6" d="M17405.92 7577.23c-74.46,-0.71 -174.47,-51.54 -257.06,-61.74l2.45 163.48 419.05 110.63c25.49,5.11 3.37,2.59 13.23,-6.46l-0.99 -1001.83 -154.54 2.35 3.68 804.91 -25.82 -11.34z"/>
   <path class="fil4" d="M17634.23 6233.79c57.52,10.58 118.56,-0.68 151.73,2.2 50.38,4.36 24.72,-1.16 41.68,23.16 -18.35,36.05 -38.9,24.07 -84.6,23.37 -35.25,-0.54 -70.49,-0.46 -105.74,-0.56l0.43 61.28 248.28 -1.25 -1.05 -156.73 -150.41 0.17c-54.96,-1.57 -12.87,1.1 -28.99,-11.52l-0.58 -17.96c2.58,-1.27 -6.06,-7.88 46.15,-8.36l136.87 2.71 1.68 -71.22c-71.85,5.59 -194.34,-7.72 -255.92,8.02l0.47 146.69z"/>
   <polygon class="fil4" points="17400.57,6344.58 17590.24,6346.62 17589.82,6082.08 17522.88,6085.94 17522.58,6276.58 17405.64,6279.03 "/>
   <path class="fil7" d="M17405.92 7577.23l25.82 11.34 -3.68 -804.91 154.54 -2.35 0.99 1001.83c-9.86,9.05 12.26,11.57 -13.23,6.46 6.78,9.86 -21.9,10.28 21.51,10.33l-3.23 -1022.83c-29.38,-7.36 -51.15,-3.33 -82.68,-3.61l-77.9 10.17 -3.09 791.59 -19.05 1.98z"/>
   <path class="fil7" d="M17730.5 7393.15l-29.64 2.39 1.06 -613.25 449.7 2.47c-12.63,-17.97 -55.25,-10.62 -103.8,-11.53l-296.57 0.95c-39.01,-0.75 -27.08,-7.77 -52.63,9.85l-3.23 612.58c27.07,7.39 -2.66,13.54 35.11,-3.46z"/>
   <path class="fil8" d="M17885.49 6352.9l0.52 -10.91 -248.28 1.25 -0.43 -61.28c35.25,0.1 70.49,0.02 105.74,0.56 45.7,0.7 66.25,12.68 84.6,-23.37 -16.96,-24.32 8.7,-18.8 -41.68,-23.16 -33.17,-2.88 -94.21,8.38 -151.73,-2.2 13.76,17.44 -36.92,19.03 108.78,14.32 98.49,-3.19 61.94,-2.79 72.61,19.5 -35.01,14.11 -125,3.16 -183.63,7.76 -4.29,39.24 -5.93,42.7 5.9,77.19l247.6 0.34z"/>
   <path class="fil9" d="M17889.68 6079.08l-1.68 71.22 -136.87 -2.71c-52.21,0.48 -43.57,7.09 -46.15,8.36 31.67,1.95 153.95,12.64 183.02,-5.65 13.06,-21.5 11.43,-50.08 1.68,-71.22 -13.06,-14.98 -17.43,-10.42 -61.98,-9.93l-169.8 2.91c-25.73,5.31 -11.41,-2.54 -24.14,15.04 61.58,-15.74 184.07,-2.43 255.92,-8.02z"/>
   <path class="fil7" d="M17866.52 7215.15c-18.38,-70.67 -3.95,-194.95 -5.93,-273.76 48.35,-1.12 96.49,-1 144.89,-1.05 23.06,-0.02 44.86,0.25 67.88,1.01 6.63,0.22 29.56,1.5 34.64,0.98 42.35,-4.4 16.83,1.01 24.97,-13.93 17.56,9.6 6.85,-3.14 2.59,6.5 -43.49,-10.5 -223.74,-7.26 -280.34,4.33 -2.99,46.24 -3.37,94.79 -3.32,141.12l0.16 103.99c5.76,48.72 -1.32,17.62 14.46,30.81z"/>
   <path class="fil10" d="M17589.82 6082.08l0.42 264.54 -189.67 -2.04c10.06,12.18 -2.35,6.31 20.36,11.32l174.64 -6.66c4.23,-17.47 13.25,-244.61 -5.75,-267.16 -7.06,-3.62 -12.03,-8.55 -31.29,-8.43 -46.73,0.29 -24.33,0.34 -35.65,12.29l66.94 -3.86z"/>
   <path class="fil9" d="M17886.01 6341.99l-0.52 10.91c16.07,-12.12 8.98,9.41 11.81,-32.62l-1.31 -137.56c-50.92,-9.87 -130.14,-3.56 -190.43,-8.81 16.12,12.62 -25.97,9.95 28.99,11.52l150.41 -0.17 1.05 156.73z"/>
  </g>
 </g>
</svg>
