<?xml version="1.0" encoding="UTF-8"?>
<!DOCTYPE svg PUBLIC "-//W3C//DTD SVG 1.1//EN" "http://www.w3.org/Graphics/SVG/1.1/DTD/svg11.dtd">
<!-- Creator: CorelDRAW 2020 (64-Bit) -->
<svg xmlns="http://www.w3.org/2000/svg" xml:space="preserve" width="835.025mm" height="723.194mm" version="1.1" style="shape-rendering:geometricPrecision; text-rendering:geometricPrecision; image-rendering:optimizeQuality; fill-rule:evenodd; clip-rule:evenodd"
viewBox="0 0 40563.03 35130.63"
 xmlns:xlink="http://www.w3.org/1999/xlink"
 xmlns:xodm="http://www.corel.com/coreldraw/odm/2003">
 <defs>
  <style type="text/css">
   <![CDATA[
    .fil1 {fill:#34495E}
    .fil0 {fill:#41BA82}
   ]]>
  </style>
 </defs>
 <g id="Layer_x0020_1">
  <metadata id="CorelCorpID_0Corel-Layer"/>
  <g id="_1086829920">
   <path class="fil0" d="M40563.03 0l-8122.84 0c-13.72,72.98 -661.92,1168.62 -756.08,1334.77l-1518.69 2628.18c-509.22,863.67 -1013.12,1781.54 -1523.9,2640.46 -132.16,222.24 -251.59,443.76 -382.38,663 -127.08,213.03 -255.79,435.95 -376.53,651.51 -493.58,881.23 -1017.02,1755.01 -1517.3,2630.13 -997.18,1744.34 -2064.91,3526.06 -3042.28,5269.14 -248.73,443.61 -513.74,876.95 -765.36,1325.08 -124.99,222.61 -252.44,445.43 -382.73,662.62 -128.22,213.74 -248.32,438.9 -376.06,652.25l-1329.93 2303.05c-36.65,64.33 -147.12,270.99 -194.11,317.19l-12159.45 -21077.39 -8115.38 0c14.25,61.17 111.57,212.33 148.94,279.49 52.22,93.85 107.48,180.92 158.64,269.78l4119.62 7139.32c103.29,189.08 210.26,353.28 313.83,543.01 304.54,557.86 643.85,1096.65 953.7,1651.11l1581.15 2737.34c112.6,190.36 206.56,367.82 319.05,554.93 219.52,365.17 414.58,731.64 634.07,1096.76 110.36,183.58 202,357.63 312.47,544.38l4755.87 8233.89c421.03,731.27 830.88,1472.59 1265.72,2195.93 219.34,364.87 414.02,732.82 634.24,1096.59l1103 1913.09c275.51,455.11 522.72,923.13 796.91,1379.48l313.88 542.97c248.51,459.54 528.32,916.99 789.18,1370.07l1907.19 3302.43c52.58,96.25 108.52,194.99 165.49,280.07 70.61,-51.73 596.13,-995.46 645.32,-1085.51 205.9,-376.91 429.66,-721.53 634.07,-1096.75 103.11,-189.29 209.64,-363.08 313.45,-543.39 108.01,-187.59 206.83,-364.83 319.19,-554.79 219.04,-370.32 415.12,-726.63 634.06,-1096.76 430.33,-727.49 835.09,-1468.29 1265.58,-2196.07l947.09 -1640.58c107.27,-191.9 213.64,-359.81 319.62,-554.36 202.12,-371.03 431.43,-725.8 634.07,-1096.76 404.78,-740.97 855.5,-1456.79 1267.53,-2194.12l1581.15 -2737.34c541.59,-915.59 1052.14,-1844.79 1591.12,-2761.65 108.9,-185.26 205.37,-360.1 315.25,-541.59 382.83,-632.37 726.53,-1291.2 1109.54,-1923.69 326.27,-538.81 621.78,-1100.43 946.72,-1640.95l477.24 -825.16c52.44,-96.06 101.25,-179.16 156.83,-271.6l2062.84 -3575.2c220.22,-363.77 414.9,-731.72 634.24,-1096.59 434.59,-722.93 846.59,-1463.49 1265.69,-2195.96 313.82,-548.46 644.8,-1084.37 947.55,-1640.12 303.48,-557.08 652.07,-1093.08 953.79,-1651.02 48.08,-88.9 103.21,-180.55 157.53,-270.89l312.47 -544.38c57.71,-97.57 113.36,-187.7 164.08,-281.48 70.24,-129.89 605.71,-1007.71 634.06,-1113.9z"/>
   <path class="fil1" d="M32440.19 0l-7488.87 0c-15.06,64.66 -534.06,944.6 -577.25,1016.48 -102.01,169.77 -188.82,327.53 -289.5,498.79 -52.15,88.72 -95.92,168.16 -143.44,250.71l-1605.87 2781.17c-253.39,463.84 -613.18,1055.58 -879.01,1520.15l-1021.77 1771.54c-34.29,57.97 -130.95,216.58 -144.39,266.9 -44.34,-32.49 -116.02,-185.12 -150.94,-243.21l-1021.6 -1771.71c-527.95,-898.1 -1079.92,-1903.46 -1606.93,-2780.12l-582.48 -1011.25c-52.96,-87.48 -103.65,-172.53 -151.11,-260.17 -260.92,-481.79 -608.23,-1032.77 -879.28,-1519.89 -50.47,-90.71 -93.75,-160.79 -143.05,-251.1 -43.16,-79.05 -124.53,-189.13 -142.98,-268.31l-7496.33 0 12159.45 21077.39c46.99,-46.21 157.46,-252.86 194.11,-317.19l1329.93 -2303.05c127.74,-213.35 247.84,-438.51 376.06,-652.25 130.29,-217.19 257.74,-440.01 382.73,-662.62 251.61,-448.14 516.62,-881.47 765.36,-1325.08 977.37,-1743.09 2045.09,-3524.8 3042.28,-5269.14 500.28,-875.12 1023.72,-1748.9 1517.3,-2630.13 120.73,-215.56 249.44,-438.48 376.53,-651.51 130.79,-219.25 250.22,-440.76 382.38,-663 510.78,-858.92 1014.68,-1776.79 1523.9,-2640.46l1518.69 -2628.18c94.17,-166.15 742.36,-1261.78 756.08,-1334.77z"/>
  </g>
 </g>
</svg>
