<?xml version="1.0" encoding="UTF-8"?>
<!DOCTYPE svg PUBLIC "-//W3C//DTD SVG 1.1//EN" "http://www.w3.org/Graphics/SVG/1.1/DTD/svg11.dtd">
<!-- Creator: CorelDRAW 2020 (64-Bit) -->
<svg xmlns="http://www.w3.org/2000/svg" xml:space="preserve" width="58.2459mm" height="14.8258mm" version="1.1" style="shape-rendering:geometricPrecision; text-rendering:geometricPrecision; image-rendering:optimizeQuality; fill-rule:evenodd; clip-rule:evenodd"
viewBox="0 0 5272.33 1342.01"
 xmlns:xlink="http://www.w3.org/1999/xlink"
 xmlns:xodm="http://www.corel.com/coreldraw/odm/2003">
 <defs>
  <style type="text/css">
   <![CDATA[
    .fil4 {fill:black}
    .fil0 {fill:#A6120C}
    .fil2 {fill:#B3B2B2}
    .fil1 {fill:#DC1B16}
    .fil3 {fill:#F2F1F1}
   ]]>
  </style>
 </defs>
 <g id="Layer_x0020_1">
  <metadata id="CorelCorpID_0Corel-Layer"/>
  <g id="_870650080">
   <path class="fil0" d="M636.44 114.76l-4.59 10.21c17.38,14.98 23.64,31.66 33.45,53.4l75.34 162.58c63.08,140.8 260.47,536.48 298.76,642.95l-138.58 -1.51c-11.39,-34.24 -28.76,-71.34 -44.15,-106.15 -51.16,-115.72 -3.01,-92.84 -222.6,-93.46l1.93 485.94 443.67 -242.14c34.54,-18.27 35.45,-18.21 41.11,-59.51 20.21,-147.15 78.43,-581.53 87.01,-707.39l-572.67 -190.38 1.35 45.46z"/>
   <path class="fil1" d="M635.97 1268.72l-1.93 -485.94 -168.78 0.5 -80.86 195.86 -141.77 2.71c20.81,-67.4 68.22,-151.75 97.06,-219.81 39.78,-93.91 279.18,-629.19 296.74,-647.28l-1.35 -45.46 -561.93 196.62 83.72 738.55c7.3,5.42 6.64,5.15 15.31,11.56l44 25.54c71.47,37.01 398.32,227.42 419.79,227.15z"/>
   <path class="fil2" d="M635.09 69.3l572.67 190.38c-8.58,125.87 -66.79,560.25 -87.01,707.39 -5.67,41.29 -6.57,41.24 -41.11,59.51l-443.67 242.14c-21.47,0.27 -348.31,-190.13 -419.79,-227.15l-44 -25.54c-8.67,-6.41 -8,-6.14 -15.31,-11.56l-83.72 -738.55 561.93 -196.62zm-635.09 146.12l45.33 391.5c15.41,134.25 33.27,263.79 46.86,397.64 7.11,70.03 39.76,60.18 111.49,103.1 49.87,29.83 92.74,50.17 143.64,78.61 33.91,18.95 273.29,155.74 288.77,155.74l495.05 -271.33c36.61,-20.84 43.97,-16.95 48.94,-66.02 9.51,-93.83 92.1,-736.2 92.1,-796.91 -37.04,-3.08 -118.04,-35.55 -158.05,-48.87 -58.35,-19.44 -100.7,-36.09 -159.06,-55.53 -424.52,-141.44 -222.84,-134.72 -636.08,1.9l-319.01 110.17z"/>
   <path class="fil2" d="M627.99 399.31l7.97 7.11 127.6 259.72 -127.01 -0.24 -2.51 116.88c219.59,0.62 171.44,-22.26 222.6,93.46 15.4,34.81 32.77,71.91 44.15,106.15l138.58 1.51c-38.29,-106.47 -235.67,-502.15 -298.76,-642.95l-75.34 -162.58c-9.8,-21.73 -16.07,-38.42 -33.45,-53.4 2.28,57.23 7.21,236.36 -3.86,274.34z"/>
   <path class="fil3" d="M634.05 782.78l2.51 -116.88 -116.68 0.72c23.96,-87.29 87.25,-186.3 108.12,-267.31 11.07,-37.98 6.14,-217.12 3.86,-274.34l4.59 -10.21c-17.56,18.09 -256.95,553.37 -296.74,647.28 -28.84,68.06 -76.25,152.41 -97.06,219.81l141.77 -2.71 80.86 -195.86 168.78 -0.5z"/>
   <path class="fil4" d="M1373.4 430.01l0.31 524.97 51.77 1.58c24.1,3.86 16.04,4.72 15.37,-82.01l-1.1 -306.6 -1.52 -45.52c35.03,19.93 266.41,350.39 310.81,404.43 27.45,33.44 24.92,28.31 74.96,28.71 16.11,-0.56 10.73,2.46 22.99,-4.43l0 -536.47 -76.64 0 0 18.67c9.52,15.11 8.17,369.82 2.78,413.27 -7.25,-12.3 -13.08,-5.78 -19.2,-33.43 -24.26,-17.9 -274.42,-352.16 -305.46,-398.52 -96.59,0 -71.72,-6.46 -75.07,15.32z"/>
   <path class="fil4" d="M4065.52 430.01l0.57 523.18 49.41 2.22 22.89 4.1c0.1,-92.04 11.56,-402.68 -4.85,-468.18 7.02,-22.39 -2.44,-8.01 12.61,-21.09 47.22,0 163.99,-8.16 198.43,13.97 48.59,31.25 40.63,107.45 -6.83,135.6 -24.18,19.89 -30.88,22.78 -62.07,31.72 -37.67,10.81 -51.38,-1.19 -60.56,29.92l5.77 17.69c18.69,52.38 54.24,84.4 82.15,125.68 91.42,135.22 71.65,129.56 157.33,132.36l22.96 1.98c-10.29,-39.15 -138.45,-188.27 -168.58,-245.67l-15.3 -11.04 84.27 -40.4c35.87,-14.44 66.12,-65.09 69.26,-109.84 4.24,-60.61 -26.41,-102.01 -61.6,-122.17 -43.13,-24.72 -179.53,-14.53 -253.01,-15.42 -98.62,-1.2 -72.78,-4.14 -72.87,15.42z"/>
   <path class="fil4" d="M2492.71 430.01c1.15,115.14 -21.26,356.25 30.59,442.73 26.28,43.83 76,76.71 152.03,84.33 101.31,10.15 122.43,-8.79 198.62,-36.72 72.87,-47.83 69.02,-142.77 68.98,-214.43 -0.05,-97.07 0,-194.15 0,-291.22 -91.69,0 -60.59,-5.22 -69.17,15.32 0.79,79.11 0.2,158.44 0.22,237.58 0.02,79.51 7.91,158.87 -46.01,198.9 -85.39,59.75 -235.39,43.1 -257.77,-63.75 -13.48,-64.43 -2.81,-305.07 -2.81,-388.05 -102.4,0 -69.23,-5.27 -74.69,15.32z"/>
   <path class="fil0" d="M4878.93 475.99c-17.63,51.6 -41.1,100.09 -6.21,162.77 69.56,124.98 234.22,39.76 303.24,95 39.7,31.78 27.41,110.39 -10.51,139.22 -46.79,30.32 -73.86,24.89 -145.88,24.79 -66.52,-0.09 -93.88,-18.97 -145.35,-23.26l0.06 15.33 0.98 47.78c57.94,11.02 114.07,20.78 175.24,21.39 90.98,0.9 99.77,-13.53 168.59,-37.61 66.61,-49.69 88.44,-213.76 -40.68,-259.11 -73.52,-25.82 -315.57,36.03 -236.5,-147.98 31.67,-74.48 240.99,-45.6 279.9,-26.45 11.93,5.87 6.35,3.85 13.44,11.12l14.49 0 0 -68.98c-53.51,-12.46 -137.13,-28.09 -206.56,-22.65 -77.92,6.1 -121.28,21.87 -164.25,68.63z"/>
   <path class="fil4" d="M3710.41 361.03l-254.25 594.37 53.89 0c31.12,-1.5 20.57,-12.49 55.8,-94.07 17.32,-40.1 29.79,-74.14 46,-114.94l91.79 -224.42 17.29 -33.84 97.76 241.77 -25.07 0.08 -114.96 -1.21 -1.91 15.44 -9.98 40 180.33 13.47c19.15,29.97 45.46,122.02 68.65,156.81l54.14 2.48 22.96 2.19 -132.82 -304.36c-12.2,-25.39 -21.43,-48.33 -32.47,-74.82l-102.92 -234.29 -14.23 15.32z"/>
   <path class="fil4" d="M1991.9 498.98c-54.23,117.71 -77.19,248.91 7.67,368.42 87.71,123.55 270.6,86.38 368.56,73.87 21.79,-11.73 15.2,-2.58 16.07,-42.9l-0.74 -192.47 -76.63 0 4.26 22.99 0 153.27c-8.95,16.28 -1.94,8.89 -19.6,15.44 -103.9,-0.6 -200.25,13.57 -253.1,-99.54 -25.77,-55.16 -34.93,-158.8 -2.84,-225.52 14.03,-29.16 22.23,-30.58 34.32,-50.58 12.52,-22.21 -3.78,-3.39 12.29,-16.54 3.7,-3.03 11.6,-7.03 15.73,-9.12 34.77,-17.58 69.09,-27.15 108.71,-29.35 56.5,-3.15 114.25,5.82 161.53,22.35 18.3,-4.79 15.32,6.14 15.32,-59.32 -67.44,-5.61 -108.83,-37.03 -224.69,-17.78 -75.59,12.56 -130.73,37.18 -166.86,86.75z"/>
   <path class="fil4" d="M3069.47 430.01l2.09 524.73 338.86 2.05c20.67,-5.35 10.81,3.05 15.51,-20.69 0.8,-4 -0.18,-32.21 -0.18,-38.59l-283.57 0 0 -482.82c-103.62,0 -70.25,-4.37 -72.71,15.32z"/>
   <path class="fil0" d="M4679.77 430.01c1.14,47.32 7.15,367.51 -6.76,411.3 -9.35,29.45 -11.95,26.72 -28.7,35.78 -21.53,13.47 -48.79,20.41 -84.3,20.41l0 19.01 6.27 39.19c52.17,-1.75 82.72,-15.23 124.01,-27.66 69.75,-45.95 61.32,-111.19 61.32,-222.12 -0.01,-97.07 0,-194.15 0,-291.22 -104.11,0 -70.66,-3.61 -71.84,15.32z"/>
   <path class="fil4" d="M4337.75 1142.75c0,142.2 154.2,157.53 204.2,89.24 11.54,-15.77 46.5,-89.24 2.72,-89.24l-91.97 0c1.2,54.09 18.64,38.32 76.64,38.32 -50.72,95.84 -153.28,53.77 -153.28,-30.66 0,-50.93 32.58,-76.63 84.31,-76.63 54.37,0 23.93,35.29 76.63,0 -37.32,-50.94 -115.73,-47.98 -160.63,-7.37 -17.68,15.99 -38.62,43.29 -38.62,76.34z"/>
   <path class="fil4" d="M4927.87 1188.73c32.15,-60.77 39.07,-30.66 68.98,-30.66 6.55,28.12 24.39,76.63 -30.66,76.63 -30.47,0 -30.15,-27.71 -38.32,-45.97zm-30.66 -15.33c0,78.43 35.6,122.24 107.3,84.3 -2.34,27.99 -9.31,45.98 -38.33,45.98 -40.81,0 1.72,-31.79 -68.98,-15.32 42.24,79.82 145.62,56.37 145.62,-45.98 0,-122.05 27.87,-122.62 -76.64,-122.62 -29.92,0 -68.98,29.24 -68.98,53.64z"/>
   <path class="fil2" d="M2873.95 920.34c-76.2,27.93 -97.32,46.87 -198.62,36.72 -76.04,-7.62 -125.76,-40.5 -152.03,-84.33 -51.85,-86.47 -29.44,-327.59 -30.59,-442.73 -15.99,3.73 -13.94,1.48 -24.94,7.67 0,84.31 0.38,168.71 -0.11,253.01 -0.98,172.17 28.53,275.95 215.23,290.95 47.48,3.81 114.51,-7.77 152.7,-30.66 8.77,-5.26 8.41,-4.84 18.46,-12.64 13.89,-10.77 10.09,-7.31 19.91,-18z"/>
   <path class="fil2" d="M1439.75 567.96l307.61 406.18 76.64 0 0 -18.57c-50.04,-0.4 -47.5,4.73 -74.96,-28.71 -44.4,-54.04 -275.78,-384.5 -310.81,-404.43l1.52 45.52z"/>
   <path class="fil2" d="M2368.13 941.27c-97.96,12.51 -280.85,49.68 -368.56,-73.87 -84.86,-119.51 -61.9,-250.71 -7.67,-368.42 -7.2,5.7 -8.28,5.97 -15.09,14.59 -36.37,46.07 -52.61,107.08 -53.55,169.08 -2.62,172.63 64.43,264.78 229.02,292.75 59.05,10.04 115.05,4.83 170.37,-8.34 31.47,-7.49 32.1,-3.98 45.48,-25.79z"/>
   <path class="fil2" d="M3410.42 956.78l-338.86 -2.05 -2.09 -524.73c-13.86,4.37 -21.11,-9.51 -19.78,53.22l0.53 490.91 360.2 0 0 -17.36z"/>
   <path class="fil1" d="M636.55 665.9l-0.6 -259.48 -7.97 -7.11c-20.86,81.01 -84.15,180.02 -108.12,267.31l116.68 -0.72z"/>
   <polygon class="fil0" points="636.55,665.9 763.56,666.13 635.96,406.42 "/>
   <path class="fil2" d="M5165.45 872.98c37.92,-28.83 50.21,-107.44 10.51,-139.22 -69.02,-55.23 -233.67,29.98 -303.24,-95 -34.89,-62.68 -11.42,-111.17 6.21,-162.77l-19.61 22.86c-27.05,36.3 -31,79.88 -20.66,127.65 31.38,144.84 210.25,92.96 285.59,112.92 55.46,14.69 66.59,81.66 41.19,133.56z"/>
   <polygon class="fil2" points="1425.48,956.56 1373.71,954.98 1373.4,430.01 1348.84,430.01 1348.84,974.14 1425.48,974.14 "/>
   <path class="fil4" d="M5134.79 1188.73c8.77,-16.57 13.35,-38.33 38.32,-38.33 21.59,0 14.19,3.31 22.99,15.33 -29.24,6.81 -32.07,16.18 -61.31,22.99zm30.66 84.3c33.08,0 43.06,-16.08 68.98,-22.99l0 -22.99c-54.04,-12.59 -33.75,25.06 -84.31,0 8.78,-24.26 66.02,-43.83 91.97,-45.98 -30.92,-132.72 -200.43,-29.45 -124.4,62.99 5.97,7.26 40.34,28.97 47.77,28.97z"/>
   <path class="fil4" d="M4651.97 1234.71c-41.19,0 -38.32,-21.78 -38.32,-53.64 0,-43.43 76.63,-38.46 76.63,15.32 0,17.87 -20.45,38.32 -38.32,38.32zm-76.63 -45.97c0,27.47 -0.69,45.41 21.15,63.14 110.1,89.37 199.12,-132.11 47.81,-132.11 -37.87,0 -68.97,31.09 -68.97,68.98z"/>
   <path class="fil4" d="M4812.91 1234.71l-7.67 0c-45.95,0 -48.24,-78.97 0.88,-82.72 56,-4.28 55.83,82.72 6.79,82.72zm-76.64 -45.97c0,27.47 -0.68,45.41 21.16,63.14 52.65,42.73 125.31,11.47 127.83,-56.67 3.57,-96.6 -148.99,-102.03 -148.99,-6.46z"/>
   <polygon class="fil2" points="4115.5,955.4 4066.09,953.19 4065.52,430.01 4046.53,430.01 4046.53,974.14 4115.5,974.14 "/>
   <path class="fil2" d="M4460.38 957.16c-85.68,-2.8 -65.91,2.86 -157.33,-132.36 -27.92,-41.29 -63.46,-73.3 -82.15,-125.68l-5.77 -17.69c-68.16,7.19 81.42,186.78 105.16,218.21 15,19.85 42.69,54.15 48.13,74.5 117.09,0 100.86,9.07 91.97,-16.98z"/>
   <path class="fil2" d="M3969.89 956.99l-54.14 -2.48c-23.19,-34.8 -49.5,-126.84 -68.65,-156.81l-180.33 -13.47 9.98 -40c-0.43,0.21 -17.62,4.78 -21.08,7.67 -2.48,29.77 -6.92,19.97 -7.67,53.65l176.27 0c5.62,24.11 22.24,55.29 32.96,82 12.46,31.05 22.06,60.21 36.02,86.6l76.64 0 0 -17.15z"/>
   <path class="fil2" d="M3510.05 955.4l-53.89 0 254.25 -594.37c-29.52,19.72 -105.02,219.38 -123.68,260.61l-86.81 196.75c-12.86,26.85 -20.54,46.73 -33.27,74.03l-33.24 81.72 76.64 0 0 -18.74z"/>
   <path class="fil2" d="M2827.97 866.49c53.92,-40.03 46.03,-119.38 46.01,-198.9 -0.02,-79.14 0.57,-158.47 -0.22,-237.58l-22.8 0c0,76.64 0,153.27 0,229.92 0,90.97 10.36,143.9 -22.99,206.56z"/>
   <path class="fil2" d="M4644.3 877.09c16.75,-9.06 19.35,-6.33 28.7,-35.78 13.91,-43.78 7.9,-363.97 6.76,-411.3 -34.7,0 -12.08,-1.98 -20.13,7.67 -6.06,16.69 9.5,365.8 -5.76,415.66 -6.46,21.1 -1.31,7.63 -9.58,23.75z"/>
   <path class="fil2" d="M1753.93 813.2c6.12,27.64 11.95,21.13 19.2,33.43 5.39,-43.45 6.74,-398.16 -2.78,-413.27 -27.56,-6.56 -8.14,-4.29 -15.32,4.32l-1.1 375.52z"/>
   <path class="fil2" d="M5219.09 921.4c-68.82,24.08 -77.61,38.51 -168.59,37.61 -61.17,-0.61 -117.3,-10.37 -175.24,-21.39l-0.98 -47.78 -23.06 0 0 68.98c34.43,0.76 58.99,11.8 92.33,14.96 83.48,7.92 178.07,22.36 255.99,-35.38l19.55 -17z"/>
   <path class="fil2" d="M4133.54 491.33c48.99,0 141.75,-4.44 175.15,6.06 56.7,17.84 56.58,74.35 29.06,122.41 47.46,-28.15 55.42,-104.35 6.83,-135.6 -34.43,-22.13 -151.2,-13.97 -198.43,-13.97 -15.05,13.08 -5.58,-1.3 -12.61,21.09z"/>
   <polygon class="fil4" points="5058.15,1265.37 5088.81,1265.37 5088.81,1043.12 5058.15,1043.12 "/>
   <path class="fil4" d="M4115.5 1250.04c-10.52,-18.72 -7.67,-14.18 -7.67,-45.98 0,-29.3 -2.35,-2.79 7.67,-22.99 53.76,4.47 56.47,68.98 0,68.98zm-30.66 15.32c33.68,0 91.97,10.05 91.97,-45.98 0,-60.2 -41.69,-53.64 -68.98,-53.64l0 -38.33 -22.99 0 0 137.95z"/>
   <path class="fil2" d="M4941.92 514.31l9 -7.1c32.41,-19.24 94.08,-21.04 124.15,-17.93 114.63,11.85 34.51,-2.27 151.7,25.03l8.5 -15.32c-7.1,-7.28 -1.51,-5.25 -13.44,-11.12 -38.91,-19.15 -248.23,-48.03 -279.9,26.45z"/>
   <path class="fil2" d="M3703.64 521.97c13.08,22.28 13.49,28.86 23.64,51.07 8.86,19.38 14.54,33.72 22.65,53.92 15.55,38.74 26.95,68.72 43.68,103.03l25.07 -0.08 -97.76 -241.77 -17.29 33.84z"/>
   <path class="fil2" d="M2069.87 521.97l12.51 -7.68c17.04,-8.26 1.15,-1.73 18.01,-7.83 10.14,-3.67 22.66,-7.5 34.7,-10.61 64.92,-16.75 172.18,-7.07 225.37,18.45 6.19,-11.01 4.24,-8.81 7.67,-24.98 -47.28,-16.53 -105.03,-25.5 -161.53,-22.35 -39.62,2.2 -73.94,11.77 -108.71,29.35 -4.13,2.08 -12.03,6.08 -15.73,9.12 -16.08,13.14 0.23,-5.68 -12.29,16.54z"/>
   <path class="fil4" d="M4215.13 1273.03l-30.65 30.65c45.66,-1.01 42.97,-16.51 56.07,-51.22 9.02,-23.89 26.31,-63.68 28.23,-86.73l-22.99 0 -14.64 54.34c-7.8,16.62 -2.99,6.91 -8.35,14.63 -15.5,-66.53 -15.57,-66.44 -45.98,-68.97 13.39,27.9 30.68,74.49 38.32,107.29z"/>
   <path class="fil2" d="M2291.49 897.62c17.66,-6.55 10.64,0.84 19.6,-15.44l0 -153.27c-33.78,0 -11.6,-1.91 -19.6,7.67l0 161.05z"/>
   <path class="fil2" d="M4690.29 928.03c-41.29,12.44 -71.84,25.92 -124.01,27.66l-6.27 -39.19c-17.33,2.46 -10.67,-21.92 -16.15,18.21 -0.56,4.09 0.82,32.52 0.82,39.42 41.67,0 50.7,2.33 83.55,-8.42l62.06 -37.69z"/>
   <path class="fil2" d="M4314.76 713.48l45.35 -31.79c1.34,-0.98 3.29,-2.22 4.61,-3.19l19.02 -16.47 -84.27 40.4 15.3 11.04z"/>
  </g>
 </g>
</svg>
